HIERARCHY
ROOT Hips
{
	OFFSET	0.000000	0.000000	0.000000
	CHANNELS	6	Xposition	Yposition	Zposition	Zrotation	Xrotation	Yrotation
	JOINT LeftHip
	{
		OFFSET	15.500000	-8.200000	0.000000
		CHANNELS	3	Zrotation	Xrotation	Yrotation
		JOINT LeftKnee
		{
			OFFSET	0.000000	-41.000000	0.000000
			CHANNELS	3	Zrotation	Xrotation	Yrotation
			JOINT LeftAnkle
			{
				OFFSET	0.000000	-41.500000	0.000000
				CHANNELS	3	Zrotation	Xrotation	Yrotation
				End Site
				{
					OFFSET	0.000000	0.000000	22.875000
				}
			}
		}
	}
	JOINT RightHip
	{
		OFFSET	-15.500000	-8.200000	0.000000
		CHANNELS	3	Zrotation	Xrotation	Yrotation
		JOINT RightKnee
		{
			OFFSET	0.000000	-41.000000	0.000000
			CHANNELS	3	Zrotation	Xrotation	Yrotation
			JOINT RightAnkle
			{
				OFFSET	0.000000	-41.500000	0.000000
				CHANNELS	3	Zrotation	Xrotation	Yrotation
				End Site
				{
					OFFSET	0.000000	0.000000	22.875000
				}
			}
		}
	}
	JOINT Chest
	{
		OFFSET	0.000000	16.666667	0.000000
		CHANNELS	3	Zrotation	Xrotation	Yrotation
		JOINT LeftCollar
		{
			OFFSET	4.625000	33.333333	1.541667
			CHANNELS	3	Zrotation	Xrotation	Yrotation
			JOINT LeftShoulder
			{
				OFFSET	13.875000	0.000000	0.000000
				CHANNELS	3	Zrotation	Xrotation	Yrotation
				JOINT LeftElbow
				{
					OFFSET	0.000000	-28.000000	0.000000
					CHANNELS	3	Zrotation	Xrotation	Yrotation
					JOINT LeftWrist
					{
						OFFSET	0.000000	-25.000000	0.000000
						CHANNELS	3	Zrotation	Xrotation	Yrotation
						End Site
						{
							OFFSET	0.000000	-7.500000	0.000000
						}
					}
				}
			}
		}
		JOINT RightCollar
		{
			OFFSET	-4.625000	33.333333	1.541667
			CHANNELS	3	Zrotation	Xrotation	Yrotation
			JOINT RightShoulder
			{
				OFFSET	-13.875000	0.000000	0.000000
				CHANNELS	3	Zrotation	Xrotation	Yrotation
				JOINT RightElbow
				{
					OFFSET	0.000000	-28.000000	0.000000
					CHANNELS	3	Zrotation	Xrotation	Yrotation
					JOINT RightWrist
					{
						OFFSET	0.000000	-25.000000	0.000000
						CHANNELS	3	Zrotation	Xrotation	Yrotation
						End Site
						{
							OFFSET	0.000000	-7.500000	0.000000
						}
					}
				}
			}
		}
		JOINT Neck
		{
			OFFSET	0.000000	33.333333	0.000000
			CHANNELS	3	Zrotation	Xrotation	Yrotation
			JOINT Head
			{
				OFFSET	0.000000	12.000000	0.000000
				CHANNELS	3	Zrotation	Xrotation	Yrotation
				End Site
				{
					OFFSET	0.000000	15.000000	0.000000
				}
			}
		}
	}
}
MOTION
Frames:	22
Frame Time:	0.012000
2.58	102.28	-56.21	-0.04	0.70	-5.54	-0.03	-0.12	0.38	0.00	0.00	0.00	-0.33	29.53	-0.06	-0.37	-1.50	0.68	0.00	3.55	0.00	-0.31	28.09	-0.08	0.40	-0.18	0.12	0.00	0.00	0.00	-1.03	-0.01	2.17	0.33	-0.41	-3.06	-0.13	0.16	0.00	0.00	0.00	0.00	-0.05	0.32	-11.28	0.27	-0.46	10.11	0.88	-0.12	0.00	0.00	0.00	0.00	-0.35	1.93	2.86
2.61	102.28	-56.25	-0.04	0.70	-5.54	-0.03	-0.11	0.39	0.00	0.00	0.00	-0.32	29.54	-0.07	-0.37	-1.48	0.67	0.00	3.51	0.00	-0.31	28.13	-0.05	0.40	-0.18	0.12	0.00	0.00	0.00	-1.01	-0.03	2.16	0.34	-0.40	-3.07	-0.13	0.16	0.00	0.00	0.00	0.00	-0.06	0.34	-11.28	0.28	-0.49	10.13	0.88	-0.12	0.00	0.00	0.00	0.00	-0.34	1.93	2.86
2.61	102.27	-56.25	-0.04	0.70	-5.54	-0.02	-0.09	0.38	0.00	0.00	0.00	-0.31	29.55	-0.08	-0.37	-1.44	0.68	0.00	3.45	0.00	-0.30	28.17	-0.06	0.39	-0.18	0.12	0.00	0.00	0.00	-1.01	-0.02	2.16	0.36	-0.40	-3.09	-0.12	0.16	0.00	0.00	0.00	0.00	-0.08	0.32	-11.27	0.30	-0.45	10.12	0.89	-0.10	0.00	0.00	0.00	0.00	-0.33	1.93	2.86
2.61	102.26	-56.25	-0.02	0.71	-5.56	-0.02	-0.07	0.38	0.00	0.00	0.00	-0.31	29.56	-0.08	-0.38	-1.47	0.66	0.00	3.42	0.00	-0.32	28.15	-0.06	0.38	-0.18	0.11	0.00	0.00	0.00	-1.02	-0.03	2.17	0.36	-0.40	-3.09	-0.13	0.15	0.00	0.00	0.00	0.00	-0.09	0.31	-11.25	0.30	-0.45	10.10	0.88	-0.10	0.00	0.00	0.00	0.00	-0.35	1.90	2.87
2.62	102.26	-56.30	-0.02	0.71	-5.56	-0.01	-0.06	0.39	0.00	0.00	0.00	-0.33	29.57	-0.04	-0.39	-1.34	0.66	0.00	3.14	0.00	-0.31	28.28	-0.04	0.37	-0.18	0.11	0.00	0.00	0.00	-1.03	-0.04	2.19	0.38	-0.39	-3.09	-0.13	0.15	0.00	0.00	0.00	0.00	-0.11	0.31	-11.25	0.32	-0.43	10.10	0.88	-0.10	0.00	0.00	0.00	0.00	-0.34	1.91	2.87
2.63	102.26	-56.31	-0.02	0.71	-5.56	-0.02	-0.06	0.39	0.00	0.00	0.00	-0.34	29.55	-0.04	-0.39	-1.32	0.67	0.00	3.09	0.00	-0.31	28.30	-0.05	0.37	-0.19	0.11	0.00	0.00	0.00	-1.02	-0.07	2.19	0.38	-0.39	-3.07	-0.08	0.10	0.00	0.00	0.00	0.00	-0.10	0.32	-11.25	0.32	-0.46	10.11	0.88	-0.10	0.00	0.00	0.00	0.00	-0.33	1.91	2.87
2.62	102.26	-56.34	-0.03	0.72	-5.59	-0.02	-0.04	0.41	0.00	0.00	0.00	-0.33	29.56	-0.04	-0.39	-1.29	0.68	0.00	3.01	0.00	-0.33	28.33	-0.04	0.37	-0.19	0.11	0.00	0.00	0.00	-0.99	-0.05	2.20	0.40	-0.32	-3.10	-0.05	0.11	0.00	0.00	0.00	0.00	-0.11	0.29	-11.27	0.32	-0.36	10.10	0.89	-0.09	0.00	0.00	0.00	0.00	-0.36	1.90	2.89
2.65	102.26	-56.30	-0.03	0.72	-5.59	-0.01	-0.03	0.41	0.00	0.00	0.00	-0.34	29.55	-0.04	-0.40	-1.27	0.69	0.00	2.95	0.00	-0.33	28.35	-0.06	0.35	-0.21	0.11	0.00	0.00	0.00	-1.02	-0.06	2.22	0.44	-0.23	-3.15	-0.05	0.11	0.00	0.00	0.00	0.00	-0.14	0.28	-11.24	0.35	-0.34	10.10	0.89	-0.09	0.00	0.00	0.00	0.00	-0.34	1.91	2.89
2.66	102.26	-56.33	-0.03	0.72	-5.59	-0.01	-0.01	0.41	0.00	0.00	0.00	-0.34	29.55	-0.04	-0.40	-1.21	0.73	0.00	2.83	0.00	-0.34	28.42	-0.06	0.35	-0.20	0.11	0.00	0.00	0.00	-1.02	-0.06	2.21	0.44	-0.22	-3.13	-0.11	0.16	0.00	0.00	0.00	0.00	-0.14	0.27	-11.25	0.35	-0.34	10.09	0.89	-0.09	0.00	0.00	0.00	0.00	-0.34	1.91	2.89
2.65	102.26	-56.32	-0.03	0.70	-5.58	-0.01	0.00	0.41	0.00	0.00	0.00	-0.34	29.56	-0.04	-0.40	-1.18	0.73	0.00	2.76	0.00	-0.32	28.47	-0.06	0.36	-0.22	0.12	0.00	0.00	0.00	-0.94	0.07	2.19	0.39	-0.37	-3.07	-0.13	0.15	0.00	0.00	0.00	0.00	-0.12	0.28	-11.26	0.34	-0.41	10.13	0.88	-0.09	0.00	0.00	0.00	0.00	-0.36	1.93	2.87
2.66	102.25	-56.37	-0.03	0.70	-5.58	-0.01	-0.14	0.41	0.00	0.30	0.00	-0.33	29.41	-0.06	-0.40	-1.15	0.72	0.00	2.66	0.00	-0.33	28.53	-0.06	0.38	-0.20	0.11	0.00	0.00	0.00	-0.88	0.07	2.17	0.33	-0.37	-3.07	-0.13	0.15	0.00	0.00	0.00	0.00	-0.08	0.30	-11.28	0.29	-0.41	10.12	0.89	-0.10	0.00	0.00	0.00	0.00	-0.39	1.91	2.87
2.67	102.25	-56.41	-0.03	0.70	-5.58	-0.01	-0.26	0.41	0.00	0.58	0.00	-0.33	29.30	-0.05	-0.40	-1.07	0.73	0.00	2.46	0.00	-0.36	28.64	-0.07	0.39	-0.21	0.10	0.00	0.00	0.00	-0.90	0.10	2.18	0.31	-0.38	-3.10	-0.13	0.15	0.00	0.00	0.00	0.00	-0.05	0.28	-11.29	0.25	-0.40	10.09	0.89	-0.10	0.00	0.00	0.00	0.00	-0.40	1.92	2.88
2.68	102.25	-56.43	-0.04	0.72	-5.60	0.00	-0.32	0.42	0.00	0.73	0.00	-0.29	29.25	-0.10	-0.41	-0.98	0.73	0.00	2.30	0.00	-0.35	28.73	-0.08	0.38	-0.22	0.10	0.00	0.00	0.00	-0.93	0.10	2.19	0.32	-0.39	-3.10	-0.13	0.15	0.00	0.00	0.00	0.00	-0.05	0.28	-11.29	0.25	-0.43	10.10	0.90	-0.11	0.00	0.00	0.00	0.00	-0.42	1.87	2.93
2.68	102.25	-56.39	-0.04	0.72	-5.60	0.00	-0.35	0.42	0.00	0.79	0.00	-0.30	29.21	-0.10	-0.40	-0.93	0.73	0.00	2.21	0.00	-0.34	28.76	-0.08	0.38	-0.21	0.08	0.00	0.00	0.00	-0.96	0.14	2.21	0.31	-0.50	-3.05	-0.14	0.14	0.00	0.00	0.00	0.00	-0.06	0.29	-11.30	0.24	-0.43	10.09	0.90	-0.10	0.00	0.00	0.00	0.00	-0.41	1.86	2.95
2.67	102.25	-56.38	-0.04	0.72	-5.60	0.00	-0.32	0.42	0.00	0.78	0.00	-0.29	29.22	-0.12	-0.41	-0.94	0.73	0.00	2.23	0.00	-0.33	28.74	-0.07	0.36	-0.21	0.08	0.00	0.00	0.00	-1.00	0.17	2.23	0.32	-0.53	-3.04	-0.12	0.15	0.00	0.00	0.00	0.00	-0.07	0.29	-11.29	0.25	-0.43	10.11	0.89	-0.10	0.00	0.00	0.00	0.00	-0.40	1.86	2.95
2.67	102.25	-56.39	-0.04	0.70	-5.59	0.00	-0.36	0.42	0.00	0.88	0.00	-0.29	29.15	-0.12	-0.41	-0.88	0.73	0.00	2.10	0.00	-0.34	28.82	-0.05	0.35	-0.20	0.07	0.00	0.00	0.00	-1.00	0.16	2.24	0.32	-0.54	-3.06	-0.12	0.15	0.00	0.00	0.00	0.00	-0.08	0.29	-11.29	0.26	-0.42	10.12	0.90	-0.11	0.00	0.00	0.00	0.00	-0.39	1.88	2.95
2.69	102.25	-56.43	-0.04	0.70	-5.59	0.00	-0.36	0.42	0.00	0.91	0.00	-0.30	29.13	-0.12	-0.41	-0.84	0.73	0.00	2.04	0.00	-0.34	28.82	-0.04	0.35	-0.20	0.06	0.00	0.00	0.00	-1.01	0.15	2.25	0.32	-0.52	-3.05	-0.11	0.15	0.00	0.00	0.00	0.00	-0.08	0.26	-11.29	0.24	-0.41	10.12	0.90	-0.11	0.00	0.00	0.00	0.00	-0.38	1.88	2.96
2.70	102.25	-56.42	-0.04	0.70	-5.59	0.00	-0.36	0.43	0.00	0.96	0.00	-0.31	29.07	-0.11	-0.41	-0.78	0.72	0.00	1.94	0.00	-0.35	28.83	-0.03	0.34	-0.20	0.04	0.00	0.00	0.00	-1.02	0.16	2.26	0.32	-0.51	-3.03	-0.12	0.15	0.00	0.00	0.00	0.00	-0.09	0.25	-11.28	0.24	-0.41	10.12	0.91	-0.11	0.00	0.00	0.00	0.00	-0.37	1.87	2.98
2.70	102.25	-56.41	-0.03	0.68	-5.61	0.01	-0.38	0.42	0.00	1.02	0.00	-0.32	29.01	-0.08	-0.42	-0.73	0.71	0.00	1.85	0.00	-0.35	28.85	-0.03	0.33	-0.19	0.03	0.00	0.00	0.00	-1.04	0.16	2.29	0.33	-0.48	-3.02	-0.12	0.16	0.00	0.00	0.00	0.00	-0.10	0.26	-11.27	0.24	-0.42	10.10	0.90	-0.10	0.00	0.00	0.00	0.00	-0.36	1.87	2.99
2.69	102.24	-56.42	-0.03	0.68	-5.61	0.00	-0.37	0.43	0.00	1.01	0.00	-0.32	29.00	-0.08	-0.42	-0.74	0.71	0.00	1.88	0.00	-0.37	28.86	-0.04	0.32	-0.17	0.01	0.00	0.00	0.00	-1.05	0.17	2.30	0.32	-0.47	-3.02	-0.12	0.16	0.00	0.00	0.00	0.00	-0.08	0.25	-11.26	0.22	-0.44	10.10	0.90	-0.09	0.00	0.00	0.00	0.00	-0.36	1.85	3.00
2.70	102.24	-56.41	-0.03	0.68	-5.61	0.01	-0.39	0.43	0.00	1.07	0.00	-0.32	28.97	-0.08	-0.42	-0.69	0.69	0.00	1.76	0.00	-0.36	28.91	-0.04	0.30	-0.16	0.00	0.00	0.00	0.00	-1.07	0.17	2.33	0.33	-0.44	-3.05	-0.12	0.15	0.00	0.00	0.00	0.00	-0.11	0.26	-11.24	0.24	-0.43	10.09	0.90	-0.09	0.00	0.00	0.00	0.00	-0.34	1.84	3.02
2.70	102.24	-56.41	-0.03	0.68	-5.61	0.01	-0.39	0.42	0.00	1.09	0.00	-0.34	28.93	-0.06	-0.42	-0.68	0.68	0.00	1.76	0.00	-0.36	28.92	-0.04	0.29	-0.16	-0.01	0.00	0.00	0.00	-1.08	0.17	2.34	0.34	-0.43	-3.05	-0.09	0.10	0.00	0.00	0.00	0.00	-0.11	0.27	-11.24	0.24	-0.43	10.07	0.90	-0.09	0.00	0.00	0.00	0.00	-0.33	1.84	3.03
